<svg width="175" height="66" viewBox="0 0 175 66" fill="none" xmlns="http://www.w3.org/2000/svg">
<path fill-rule="evenodd" clip-rule="evenodd" d="M98.7598 19.3193C98.7598 15.9916 99.1944 13.126 100.064 10.7227C100.991 8.2577 102.178 6.2549 103.627 4.71429C105.134 3.11204 106.814 1.94117 108.668 1.20168C110.58 0.400553 112.521 0 114.491 0H131.613V11.1849H114.665C112.869 11.1849 111.42 11.8936 110.319 13.3109C109.682 14.112 109.219 15.1905 108.929 16.5462C111.189 15.3753 113.854 14.8207 116.925 14.8824C120.054 14.8207 122.748 15.4062 125.008 16.6387C127.268 17.8095 129.151 19.3501 130.657 21.2605C132.164 23.1709 133.265 25.2661 133.96 27.5462C134.713 29.7647 135.09 31.9216 135.09 34.0168C135.09 36.112 134.713 38.2689 133.96 40.4874C133.265 42.7059 132.164 44.7395 130.657 46.5882C129.209 48.437 127.326 49.9468 125.008 51.1176C122.748 52.2885 120.054 52.874 116.925 52.874C113.796 52.874 111.073 52.2885 108.755 51.1176C106.495 49.9468 104.612 48.437 103.106 46.5882C101.657 44.7395 100.556 42.7059 99.8028 40.4874C99.1075 38.2689 98.7598 36.112 98.7598 34.0168V33.9244V19.3193ZM116.925 42.0588C118.142 42.0588 119.214 41.8123 120.141 41.3193C121.126 40.8263 121.937 40.1793 122.574 39.3782C123.27 38.577 123.762 37.6835 124.052 36.6975C124.4 35.7115 124.573 34.7563 124.573 33.8319C124.573 32.9076 124.4 31.9832 124.052 31.0588C123.704 30.0728 123.212 29.2101 122.574 28.4706C121.937 27.6695 121.126 27.0224 120.141 26.5294C119.214 25.9748 118.142 25.6975 116.925 25.6975C115.708 25.6975 114.607 25.9748 113.622 26.5294C112.695 27.0224 111.913 27.6695 111.276 28.4706C110.638 29.2101 110.146 30.0728 109.798 31.0588C109.45 31.9832 109.276 32.9076 109.276 33.8319C109.276 34.7563 109.421 35.7115 109.711 36.6975C110.059 37.6835 110.551 38.577 111.189 39.3782C111.884 40.1793 112.695 40.8263 113.622 41.3193C114.607 41.8123 115.708 42.0588 116.925 42.0588ZM17.9044 14.5126H0V23.8314C10.3668 23.8314 16.709 25.4161 21.39 28.6877C24.713 31.0102 24.713 36.1511 21.39 38.4735C16.709 41.7451 10.3668 43.3298 0 43.3298V66H9.99515V52.5042H17.9044C21.0333 52.5658 23.7276 52.0112 25.9874 50.8403C28.2472 49.6078 30.1303 48.0364 31.6368 46.1261C33.1433 44.2157 34.2443 42.1512 34.9396 39.9328C35.6928 37.6527 36.0695 35.465 36.0695 33.3698C36.0695 31.2745 35.6928 29.1177 34.9396 26.8992C34.2443 24.6807 33.1433 22.6471 31.6368 20.7983C30.1882 18.9496 28.3051 17.4398 25.9874 16.2689C23.7276 15.098 21.0333 14.5126 17.9044 14.5126ZM50.9481 14.6975H40.866V52.5966H62.5077C71.8945 52.5966 76.5878 47.6975 76.5878 37.8991C76.5878 28.4706 72.0683 23.6947 63.0292 23.5714H50.9481V14.6975ZM61.3778 43.1681H50.9481V32.9076H61.3778C64.7965 32.7843 66.5058 34.4482 66.5058 37.8991C66.5058 41.4118 64.7965 43.1681 61.3778 43.1681ZM83.4541 14.6975V52.5966H93.4492V14.6975H83.4541ZM157.096 52.874H175V14.8824H157.096C153.967 14.8207 151.272 15.4062 149.013 16.6387C146.753 17.8095 144.87 19.3501 143.363 21.2605C141.857 23.1709 140.727 25.2661 139.974 27.5462C139.278 29.7647 138.931 31.9216 138.931 34.0168C138.931 36.112 139.278 38.2689 139.974 40.4874C140.727 42.7059 141.828 44.7395 143.276 46.5882C144.783 48.437 146.666 49.9468 148.926 51.1176C151.243 52.2885 153.967 52.874 157.096 52.874ZM149.882 36.6975C149.592 35.7115 149.447 34.7563 149.447 33.8319C149.447 32.9076 149.621 31.9832 149.969 31.0588C150.316 30.0728 150.809 29.2101 151.446 28.4706C152.084 27.6695 152.866 27.0224 153.793 26.5294C154.778 25.9748 155.879 25.6975 157.096 25.6975H165.005V42.0588H157.096C155.879 42.0588 154.778 41.8123 153.793 41.3193C152.866 40.8263 152.055 40.1793 151.359 39.3782C150.722 38.577 150.229 37.6835 149.882 36.6975ZM13.2409 33.2195C14.5534 33.2195 15.6174 32.0879 15.6174 30.692C15.6174 29.296 14.5534 28.1644 13.2409 28.1644C11.9283 28.1644 10.8643 29.296 10.8643 30.692C10.8643 32.0879 11.9283 33.2195 13.2409 33.2195Z" fill="#3048EA"/>
</svg>
