<svg width="210" height="59" viewBox="0 0 210 59" fill="none" xmlns="http://www.w3.org/2000/svg">
<path d="M206.077 52.5305C207.39 52.5305 208.131 53.1586 208.131 54.4253C208.131 55.6815 207.347 56.3829 206.035 56.3829H203.324V50.6252H204.203V52.5305H206.077ZM209.052 50.6252H209.931V56.3829H209.052V50.6252ZM206.024 55.5559C206.977 55.5559 207.241 55.0534 207.241 54.4253C207.241 53.7762 206.987 53.3052 206.035 53.3052H204.203V55.5559H206.024Z" fill="#3048EA"/>
<path d="M199.302 50.7195C200.837 50.7195 201.991 51.8396 201.991 53.525C201.991 55.3151 200.699 56.498 199.037 56.498C197.407 56.498 196.073 55.3779 196.052 53.1586C196.052 48.9503 197.936 48.207 201.303 48.207V49.0236C198.444 49.0236 197.153 49.5261 196.962 52.1118C197.396 51.1905 198.328 50.7195 199.302 50.7195ZM199.005 55.7443C200.181 55.7443 201.112 54.8859 201.112 53.5669C201.112 52.3107 200.255 51.4732 199.101 51.4732C197.957 51.4732 196.941 52.2897 196.941 53.5564C196.941 54.8859 197.83 55.7443 199.005 55.7443Z" fill="#3048EA"/>
<path d="M190.859 52.5305C192.172 52.5305 192.913 53.1586 192.913 54.4253C192.913 55.6815 192.13 56.3829 190.817 56.3829H188.106V50.6252H188.985V52.5305H190.859ZM193.834 50.6252H194.713V56.3829H193.834V50.6252ZM190.806 55.5559C191.759 55.5559 192.024 55.0534 192.024 54.4253C192.024 53.7762 191.77 53.3052 190.817 53.3052H188.985V55.5559H190.806Z" fill="#3048EA"/>
<path d="M184.272 49.0549C185.913 49.0549 186.834 50.0494 186.834 51.3999C186.834 52.7503 185.913 53.7867 184.272 53.7867H182.176V56.3828H181.297V49.0549H184.272ZM184.24 52.9597C185.415 52.9597 185.945 52.2478 185.945 51.4103C185.945 50.5729 185.415 49.8819 184.24 49.8819H182.176V52.9597H184.24Z" fill="#3048EA"/>
<path d="M172.445 50.6252H176.405V56.3829H175.526V51.4418H173.186L172.752 54.1426C172.466 55.8804 171.895 56.498 170.973 56.498C170.825 56.498 170.645 56.4876 170.497 56.4666V55.671C170.592 55.6815 170.709 55.692 170.804 55.692C171.397 55.692 171.672 55.3465 171.884 54.0903L172.445 50.6252Z" fill="#3048EA"/>
<path d="M168.686 50.6249H169.565V56.3826H168.686V55.2206C168.231 55.9952 167.447 56.4977 166.442 56.4977C164.854 56.4977 163.721 55.2415 163.721 53.5037C163.721 51.7555 164.864 50.5098 166.442 50.5098C167.447 50.5098 168.241 51.0227 168.686 51.8079V50.6249ZM166.611 55.6707C167.797 55.6707 168.697 54.7704 168.697 53.5037C168.697 52.2371 167.797 51.3368 166.611 51.3368C165.425 51.3368 164.61 52.2475 164.61 53.5037C164.61 54.7704 165.436 55.6707 166.611 55.6707Z" fill="#3048EA"/>
<path d="M161.506 50.6252H162.385V56.3829H161.506V53.8495H157.928V56.3829H157.049V50.6252H157.928V53.0225H161.506V50.6252Z" fill="#3048EA"/>
<path d="M152.997 50.5098C154.575 50.5098 155.718 51.7555 155.718 53.5037C155.718 55.2415 154.575 56.4977 152.987 56.4977C151.981 56.4977 151.197 55.9952 150.753 55.2206V58.9997H149.874V50.6249H150.753V51.8079C151.197 51.0227 151.991 50.5098 152.997 50.5098ZM152.828 55.6707C154.003 55.6707 154.829 54.7704 154.829 53.5037C154.829 52.2475 154.003 51.3368 152.828 51.3368C151.642 51.3368 150.742 52.2371 150.742 53.5037C150.742 54.7704 151.642 55.6707 152.828 55.6707Z" fill="#3048EA"/>
<path d="M147.82 50.6252H148.762L144.835 59H143.892L145.438 55.6815L143.077 50.6252H144.019L145.904 54.7498L147.82 50.6252Z" fill="#3048EA"/>
<path d="M142.523 56.3829H141.369L138.257 53.5983V56.3829H137.378V53.5983L134.265 56.3829H133.111L136.446 53.3575L133.376 50.6252H134.53L137.378 53.2005V50.6252H138.257V53.2005L141.105 50.6252H142.259L139.188 53.3575L142.523 56.3829Z" fill="#3048EA"/>
<path d="M117.335 0.818925C117.335 0.366645 117.701 0 118.154 0H209.181C209.633 0 210 0.366645 210 0.818925V38.6317C210 39.0839 209.633 39.4506 209.181 39.4506H130.367C129.915 39.4506 129.548 39.8172 129.548 40.2695V55.539C129.548 55.9913 129.182 56.358 128.73 56.358H118.154C117.701 56.358 117.335 55.9913 117.335 55.539V0.818925ZM130.367 12.0767C129.915 12.0767 129.548 12.4434 129.548 12.8956V26.5549C129.548 27.0072 129.915 27.3739 130.367 27.3739H196.967C197.42 27.3739 197.786 27.0072 197.786 26.5549V12.8956C197.786 12.4434 197.42 12.0767 196.967 12.0767H130.367Z" fill="#3048EA"/>
<path d="M97.1412 6.90467C97.2832 6.63677 97.5616 6.46924 97.8648 6.46924H108.767C109.219 6.46924 109.586 6.83588 109.586 7.28816V55.539C109.586 55.9913 109.219 56.358 108.767 56.358H98.1909C97.7386 56.358 97.372 55.9913 97.372 55.539V32.1597C97.372 31.3269 96.2735 31.0257 95.8487 31.742L81.4878 55.9568C81.3403 56.2055 81.0726 56.358 80.7834 56.358H69.8551C69.4028 56.358 69.0361 55.9913 69.0361 55.539V18.5459V7.28816C69.0361 6.83588 69.4028 6.46924 69.8551 6.46924H80.4309C80.8832 6.46924 81.2499 6.83588 81.2499 7.28816V33.5945C81.2499 34.4482 82.3926 34.7323 82.7924 33.978L97.1412 6.90467Z" fill="#3048EA"/>
<path d="M40.2285 33.9758C39.7762 33.9758 39.4096 34.3424 39.4096 34.7947V55.539C39.4096 55.9913 39.043 56.358 38.5907 56.358H28.0148C27.5625 56.358 27.1959 55.9913 27.1959 55.539V34.7947C27.1959 34.3424 26.8292 33.9758 26.377 33.9758H24.4507C24.1376 33.9758 23.8518 34.1544 23.7146 34.4359L13.2522 55.8979C13.115 56.1794 12.8293 56.358 12.5161 56.358H1.30865C0.703868 56.358 0.307728 55.7249 0.572137 55.181L13.993 27.5726C14.1034 27.3456 14.1029 27.0804 13.9917 26.8538L1.39313 1.17969C1.12612 0.63556 1.52221 0 2.12831 0H12.7602C13.0735 0 13.3593 0.178697 13.4965 0.460319L23.7147 21.4388C23.8519 21.7204 24.1377 21.8991 24.4509 21.8991H26.377C26.8292 21.8991 27.1959 21.5324 27.1959 21.0802V12.0767V0.818924C27.1959 0.366644 27.5625 0 28.0148 0H38.5907C39.043 0 39.4096 0.366645 39.4096 0.818925V21.0802C39.4096 21.5325 39.7762 21.8991 40.2285 21.8991H42.1546C42.4678 21.8991 42.7536 21.7204 42.8908 21.4388L53.109 0.460319C53.2462 0.178697 53.532 0 53.8453 0H64.4772C65.0833 0 65.4794 0.63556 65.2124 1.17969L52.6138 26.8538C52.5026 27.0804 52.5021 27.3456 52.6124 27.5726L66.0333 55.181C66.2978 55.7249 65.9016 56.358 65.2968 56.358H54.0894C53.7762 56.358 53.4905 56.1794 53.3532 55.8979L42.8909 34.4359C42.7537 34.1544 42.4679 33.9758 42.1548 33.9758H40.2285Z" fill="#3048EA"/>
</svg>
